<svg version="1.1" xmlns="http://www.w3.org/2000/svg" width="500" height="500" xmlns:bx="https://boxy-svg.com">
  <path d="M 0 0 C 165 0 330 0 500 0 C 500 165 500 330 500 500 C 335 500 170 500 0 500 C 0 335 0 170 0 0 Z" fill="#00000000"></path>
  <g transform="matrix(0.913044, 0, 0, 0.913044, 21.73899, 67.981932)">
    <path d="M 170.895 20 C 182.061 20 193.226 20 204.731 20 C 205.636 21.508 255.635 90.352 285.209 131.571 C 285.185 156.483 285.209 177.205 285.209 186.441 C 253.159 141.71 281.233 181.288 204.731 74.87 C 204.731 116.573 204.731 150.135 204.731 184.611 C 194.79 184.611 183.021 184.611 170.895 184.611 C 170.895 130.289 170.895 75.968 170.895 20 Z" style="fill: rgb(255, 255, 255);"></path>
    <path d="M 154.434 213.055 C 157.748 213.002 171.627 212.962 171.81 212.962 C 180.758 237.315 178.479 231.95 186.441 256.859 C 193.483 237.821 199.781 222.486 202.903 212.962 C 207.515 212.962 212.947 212.962 218.45 212.962 C 231.735 249.752 231.131 247.527 233.997 256.859 C 245.3 215.533 236.545 248.457 245.884 212.962 C 252.317 212.962 258.654 212.962 263.26 212.962 C 242.674 284.748 262.756 214.77 242.227 286.123 C 237.209 286.123 230.268 286.123 224.851 286.123 C 211.918 249.369 223.783 282.668 210.313 244.97 C 196.031 280.13 207.2 252.244 193.758 285.209 C 189.459 285.209 178.845 285.227 176.381 285.209 C 172.709 272.89 154.745 215.543 154.527 213.053 L 154.434 212.962 L 154.434 213.055 Z" style="fill: rgb(255, 255, 255);"></path>
    <path d="M 20 212.962 C 27.244 212.962 34.486 212.962 38.289 212.962 C 48.077 225.17 70.156 252.472 74.87 257.773 C 74.87 243.892 74.87 228.179 74.87 213.877 C 80.907 213.877 86.942 213.877 93.162 213.877 C 93.162 237.417 93.162 260.956 93.162 285.209 C 86.823 285.209 80.486 285.209 74.87 285.209 C 67.182 276.287 46.296 252.797 38.289 243.141 C 38.289 257.316 38.289 271.492 38.289 286.123 C 33.48 286.123 26.84 286.123 20 286.123 C 20 261.981 20 237.836 20 212.962 Z" style="fill: rgb(255, 255, 255);"></path>
    <path d="M 437.017 212.962 C 451.202 212.962 465.386 212.962 480 212.962 C 480 218.093 480 223.222 480 228.508 C 472.756 228.508 465.368 228.508 456.223 228.508 C 456.223 232.441 456.223 236.373 456.223 241.313 C 464.727 241.313 471.313 241.313 478.171 241.313 C 478.171 245.83 478.171 251.262 478.171 255.945 C 471.495 255.945 464.911 255.945 456.223 255.945 C 456.223 260.791 456.223 264.724 456.223 269.662 C 465.276 269.662 472.501 269.662 480 269.662 C 480 274.483 480 280.215 480 285.209 C 474.055 285.209 468.019 285.209 462.076 285.209 C 460.063 285.209 458.051 285.209 455.949 285.209 C 453.021 285.209 450.187 285.209 447.26 285.209 C 445.889 285.209 442.504 285.209 437.017 285.209 C 437.017 282.464 437 220.743 437.017 212.962 Z" style="fill: rgb(255, 255, 255);"></path>
    <path d="M 108.708 212.962 C 122.591 212.962 136.473 212.962 150.775 212.962 C 150.775 218.093 150.775 223.222 150.775 228.508 C 143.23 228.508 135.686 228.508 127.912 228.508 C 127.912 232.432 127.912 236.356 127.912 241.313 C 134.863 241.313 141.813 241.313 148.947 241.313 C 148.947 245.83 148.947 251.262 148.947 255.945 C 142.27 255.945 135.686 255.945 127.912 255.945 C 127.912 260.791 127.912 264.724 127.912 269.662 C 136.051 269.662 143.276 269.662 150.775 269.662 C 150.775 274.179 150.775 279.612 150.775 285.209 C 136.894 285.209 123.011 285.209 108.708 285.209 C 108.708 261.368 108.708 237.525 108.708 212.962 Z" style="fill: rgb(255, 255, 255);"></path>
    <path d="M 383.975 212.962 C 398.16 212.962 412.345 212.962 426.958 212.962 C 426.958 218.093 426.958 223.222 426.958 228.508 C 419.112 228.508 411.264 228.508 403.181 228.508 C 403.181 232.432 403.181 236.356 403.181 241.313 C 410.406 241.313 417.631 241.313 425.13 241.313 C 425.13 245.83 425.028 251.31 425.038 255.945 C 417.813 255.945 410.68 255.945 403.181 255.945 C 403.181 266.215 403.181 275.569 403.181 285.209 C 396.844 285.209 390.507 285.209 383.975 285.209 C 383.975 261.368 383.975 237.525 383.975 212.962 Z" style="fill: rgb(255, 255, 255);"></path>
    <path d="M 298.926 212.962 C 305.265 212.962 311.602 212.962 318.132 212.962 C 318.132 231.673 318.132 250.384 318.132 269.662 C 325.373 269.662 332.617 269.662 340.079 269.662 C 340.079 274.792 340.079 279.923 340.079 285.209 C 326.499 285.209 312.917 285.209 298.926 285.209 C 298.926 261.368 298.926 237.525 298.926 212.962 Z" style="fill: rgb(255, 255, 255);"></path>
    <path d="M 350.139 212.962 C 356.477 212.962 362.815 212.962 369.345 212.962 C 369.345 237.105 369.345 261.248 369.345 286.123 C 363.006 286.123 356.668 286.123 350.139 286.123 C 350.139 261.981 350.139 237.836 350.139 212.962 Z" style="fill: rgb(255, 255, 255);"></path>
    <path d="M 240.398 20 C 269.067 20 297.736 20 327.276 20 C 327.276 74.926 327.276 129.851 327.276 186.441 C 315.205 186.441 303.133 186.441 290.696 186.441 C 290.696 143.286 290.696 100.13 290.696 55.666 C 274.097 55.666 257.499 55.666 240.398 55.666 C 240.398 43.897 240.398 32.126 240.398 20 Z" fill="#8FC543"></path>
    <path d="M 87.62 366.85 C 91.777 366.85 95.427 366.254 98.572 365.063 C 101.718 363.871 103.988 362.708 105.387 361.573 L 110.462 371.785 C 108.77 373.299 105.864 374.83 101.745 376.38 C 97.625 377.932 92.697 378.706 86.957 378.706 C 81.587 378.706 76.585 377.723 71.95 375.756 C 67.314 373.79 63.251 371.057 59.756 367.557 C 56.261 364.059 53.54 359.965 51.59 355.274 C 49.641 350.585 48.666 345.498 48.666 340.013 C 48.666 334.528 49.641 329.423 51.59 324.695 C 53.54 319.968 56.252 315.846 59.728 312.327 C 63.205 308.811 67.268 306.058 71.922 304.073 C 76.575 302.088 81.587 301.094 86.957 301.094 C 92.697 301.094 97.625 301.868 101.745 303.421 C 105.864 304.971 108.77 306.503 110.462 308.017 L 105.387 318.229 C 103.988 317.092 101.718 315.93 98.572 314.739 C 95.427 313.549 91.777 312.951 87.62 312.951 C 83.61 312.951 79.997 313.633 76.778 314.994 C 73.56 316.355 70.782 318.266 68.447 320.725 C 66.112 323.183 64.326 326.038 63.094 329.291 C 61.862 332.545 61.245 336.061 61.245 339.844 C 61.245 343.664 61.862 347.21 63.094 350.482 C 64.326 353.753 66.112 356.617 68.447 359.077 C 70.782 361.535 73.56 363.446 76.778 364.806 C 79.997 366.169 83.61 366.85 87.62 366.85 Z M 164.802 345.119 L 132.966 345.119 L 132.966 377.345 L 121.38 377.345 L 121.38 302.456 L 132.966 302.456 L 132.966 334.454 L 164.802 334.454 L 164.802 302.456 L 176.334 302.456 L 176.334 377.345 L 164.802 377.345 L 164.802 345.119 Z M 234.933 302.456 L 246.573 302.456 L 246.573 348.807 C 246.573 354.974 245.388 360.296 243.016 364.779 C 240.642 369.26 237.341 372.702 233.111 375.103 C 228.881 377.506 223.952 378.706 218.325 378.706 C 212.732 378.706 207.804 377.506 203.537 375.103 C 199.271 372.702 195.941 369.26 193.549 364.779 C 191.159 360.296 189.964 354.974 189.964 348.807 L 189.964 302.456 L 201.605 302.456 L 201.605 348.185 C 201.605 352.231 202.322 355.71 203.758 358.624 C 205.192 361.535 207.169 363.767 209.689 365.317 C 212.209 366.868 215.088 367.644 218.325 367.644 C 221.561 367.644 224.421 366.868 226.903 365.317 C 229.387 363.767 231.347 361.535 232.78 358.624 C 234.214 355.71 234.933 352.231 234.933 348.185 L 234.933 302.456 Z M 259.541 302.456 L 286.302 302.456 C 290.311 302.456 293.943 303.316 297.198 305.038 C 300.453 306.758 303.048 309.264 304.979 312.554 C 306.91 315.846 307.875 319.836 307.875 324.526 C 307.875 329.178 307.002 333.017 305.255 336.043 C 303.508 339.068 301.418 341.337 298.991 342.851 C 296.565 344.364 294.321 345.214 292.26 345.404 L 310.191 377.345 L 297.005 377.345 L 280.508 346.311 L 271.183 346.311 L 271.183 377.345 L 259.541 377.345 L 259.541 302.456 Z M 271.183 337.688 L 282.163 337.688 C 286.062 337.688 289.326 336.687 291.958 334.681 C 294.587 332.677 295.901 329.405 295.901 324.865 C 295.901 320.289 294.597 317.037 291.984 315.108 C 289.372 313.18 286.135 312.215 282.273 312.215 L 271.183 312.215 L 271.183 337.688 Z M 356.044 366.85 C 360.2 366.85 363.851 366.254 366.997 365.063 C 370.141 363.871 372.414 362.708 373.81 361.573 L 378.887 371.785 C 377.194 373.299 374.289 374.83 370.169 376.38 C 366.048 377.932 361.119 378.706 355.381 378.706 C 350.012 378.706 345.009 377.723 340.374 375.756 C 335.739 373.79 331.673 371.057 328.179 367.557 C 324.685 364.059 321.964 359.965 320.015 355.274 C 318.064 350.585 317.09 345.498 317.09 340.013 C 317.09 334.528 318.064 329.423 320.015 324.695 C 321.964 319.968 324.677 315.846 328.152 312.327 C 331.628 308.811 335.692 306.058 340.347 304.073 C 345 302.088 350.012 301.094 355.381 301.094 C 361.119 301.094 366.048 301.868 370.169 303.421 C 374.289 304.971 377.194 306.503 378.887 308.017 L 373.81 318.229 C 372.414 317.092 370.141 315.93 366.997 314.739 C 363.851 313.549 360.2 312.951 356.044 312.951 C 352.034 312.951 348.419 313.633 345.201 314.994 C 341.982 316.355 339.206 318.266 336.87 320.725 C 334.533 323.183 332.75 326.038 331.519 329.291 C 330.286 332.545 329.67 336.061 329.67 339.844 C 329.67 343.664 330.286 347.21 331.519 350.482 C 332.75 353.753 334.533 356.617 336.87 359.077 C 339.206 361.535 341.982 363.446 345.201 364.806 C 348.419 366.169 352.034 366.85 356.044 366.85 Z M 433.228 345.119 L 401.391 345.119 L 401.391 377.345 L 389.804 377.345 L 389.804 302.456 L 401.391 302.456 L 401.391 334.454 L 433.228 334.454 L 433.228 302.456 L 444.759 302.456 L 444.759 377.345 L 433.228 377.345 L 433.228 345.119 Z" style="fill: rgb(255, 255, 255); text-wrap-mode: nowrap;"></path>
  </g>
  <defs>
    <style bx:fonts="League Spartan">@import url(https://fonts.googleapis.com/css2?family=League+Spartan%3Aital%2Cwght%400%2C100..900&amp;display=swap);</style>
    <style bx:fonts="Alexandria">@import url(https://fonts.googleapis.com/css2?family=Alexandria%3Aital%2Cwght%400%2C100..900&amp;display=swap);</style>
  </defs>
</svg>