<svg version="1.1" xmlns="http://www.w3.org/2000/svg" width="1920" height="1080" xmlns:bx="https://boxy-svg.com">
  <path d="M0 0 C633.6 0 1267.2 0 1920 0 C1920 356.4 1920 712.8 1920 1080 C1286.4 1080 652.8 1080 0 1080 C0 723.6 0 367.2 0 0 Z " fill="#000000" transform="translate(0,0)"></path>
  <path d="M 867 318 C 879.21 318 891.42 318 904 318 C 904.99 319.65 959.661 394.928 992 440 C 991.975 467.241 992 489.9 992 500 C 956.955 451.088 987.653 494.365 904 378 C 904 423.6 904 460.3 904 498 C 893.13 498 880.26 498 867 498 C 867 438.6 867 379.2 867 318 Z" style="fill: rgb(255, 255, 255);"></path>
  <path d="M 849 529.102 C 852.625 529.044 867.8 529 868 529 C 877.785 555.628 875.293 549.764 884 577 C 891.699 556.182 898.587 539.414 902 529 C 907.043 529 912.983 529 919 529 C 933.528 569.229 932.868 566.795 936 577 C 948.362 531.811 938.787 567.812 949 529 C 956.033 529 962.963 529 968 529 C 945.489 607.496 967.448 530.976 945 609 C 939.513 609 931.923 609 926 609 C 911.857 568.81 924.832 605.221 910.103 564 C 894.487 602.447 906.7 571.955 892 608 C 887.3 608 875.693 608.021 873 608 C 868.985 594.531 849.34 531.822 849.103 529.1 L 849 529 L 849 529.102 Z" style="fill: rgb(255, 255, 255);"></path>
  <path d="M 702 529 C 709.92 529 717.84 529 722 529 C 732.701 542.348 756.844 572.204 762 578 C 762 562.82 762 545.64 762 530 C 768.6 530 775.2 530 782 530 C 782 555.74 782 581.48 782 608 C 775.07 608 768.14 608 762 608 C 753.593 598.243 730.754 572.559 722 562 C 722 577.5 722 593 722 609 C 716.74 609 709.48 609 702 609 C 702 582.6 702 556.2 702 529 Z" style="fill: rgb(255, 255, 255);"></path>
  <path d="M 1158 529 C 1173.51 529 1189.02 529 1205 529 C 1205 534.61 1205 540.22 1205 546 C 1197.08 546 1189 546 1179 546 C 1179 550.3 1179 554.6 1179 560 C 1188.3 560 1195.5 560 1203 560 C 1203 564.94 1203 570.88 1203 576 C 1195.7 576 1188.5 576 1179 576 C 1179 581.3 1179 585.6 1179 591 C 1188.9 591 1196.8 591 1205 591 C 1205 596.27 1205 602.54 1205 608 C 1198.5 608 1191.9 608 1185.4 608 C 1183.2 608 1181 608 1178.7 608 C 1175.5 608 1172.4 608 1169.2 608 C 1167.7 608 1164 608 1158 608 C 1158 605 1157.98 537.508 1158 529 Z" style="fill: rgb(255, 255, 255);"></path>
  <path d="M 799 529 C 814.18 529 829.36 529 845 529 C 845 534.61 845 540.22 845 546 C 836.75 546 828.5 546 820 546 C 820 550.29 820 554.58 820 560 C 827.6 560 835.2 560 843 560 C 843 564.94 843 570.88 843 576 C 835.7 576 828.5 576 820 576 C 820 581.3 820 585.6 820 591 C 828.9 591 836.8 591 845 591 C 845 595.94 845 601.88 845 608 C 829.82 608 814.64 608 799 608 C 799 581.93 799 555.86 799 529 Z" style="fill: rgb(255, 255, 255);"></path>
  <path d="M 1100 529 C 1115.51 529 1131.02 529 1147 529 C 1147 534.61 1147 540.22 1147 546 C 1138.42 546 1129.84 546 1121 546 C 1121 550.29 1121 554.58 1121 560 C 1128.9 560 1136.8 560 1145 560 C 1145 564.94 1144.89 570.932 1144.9 576 C 1137 576 1129.2 576 1121 576 C 1121 587.23 1121 597.46 1121 608 C 1114.07 608 1107.14 608 1100 608 C 1100 581.93 1100 555.86 1100 529 Z" style="fill: rgb(255, 255, 255);"></path>
  <path d="M 1007 529 C 1013.93 529 1020.86 529 1028 529 C 1028 549.46 1028 569.92 1028 591 C 1035.92 591 1043.84 591 1052 591 C 1052 596.61 1052 602.22 1052 608 C 1037.15 608 1022.3 608 1007 608 C 1007 581.93 1007 555.86 1007 529 Z" style="fill: rgb(255, 255, 255);"></path>
  <path d="M 1063 529 C 1069.93 529 1076.86 529 1084 529 C 1084 555.4 1084 581.8 1084 609 C 1077.07 609 1070.14 609 1063 609 C 1063 582.6 1063 556.2 1063 529 Z" style="fill: rgb(255, 255, 255);"></path>
  <path d="M0 0 C31.35 0 62.7 0 95 0 C95 60.06 95 120.12 95 182 C81.8 182 68.6 182 55 182 C55 134.81 55 87.62 55 39 C36.85 39 18.7 39 0 39 C0 26.13 0 13.26 0 0 Z " fill="#8FC543" transform="translate(943,318)"></path>
  <path d="M 730.127 560.263 Q 731.709 560.263 732.906 559.822 Q 734.103 559.381 734.635 558.961 L 735.923 561.481 Q 735.279 562.041 733.711 562.615 Q 732.143 563.189 729.959 563.189 Q 727.915 563.189 726.151 562.461 Q 724.387 561.733 723.057 560.438 Q 721.727 559.143 720.985 557.407 Q 720.243 555.671 720.243 553.641 Q 720.243 551.611 720.985 549.861 Q 721.727 548.111 723.05 546.809 Q 724.373 545.507 726.144 544.772 Q 727.915 544.037 729.959 544.037 Q 732.143 544.037 733.711 544.611 Q 735.279 545.185 735.923 545.745 L 734.635 548.265 Q 734.103 547.845 732.906 547.404 Q 731.709 546.963 730.127 546.963 Q 728.601 546.963 727.376 547.467 Q 726.151 547.971 725.262 548.881 Q 724.373 549.791 723.904 550.995 Q 723.435 552.199 723.435 553.599 Q 723.435 555.013 723.904 556.224 Q 724.373 557.435 725.262 558.345 Q 726.151 559.255 727.376 559.759 Q 728.601 560.263 730.127 560.263 Z M 749.711 554.901 L 741.633 554.901 L 741.633 562.853 L 738.693 562.853 L 738.693 544.373 L 741.633 544.373 L 741.633 552.269 L 749.711 552.269 L 749.711 544.373 L 752.637 544.373 L 752.637 562.853 L 749.711 562.853 Z M 767.505 544.373 L 770.459 544.373 L 770.459 555.811 Q 770.459 558.093 769.556 559.752 Q 768.653 561.411 767.043 562.3 Q 765.433 563.189 763.291 563.189 Q 761.163 563.189 759.539 562.3 Q 757.915 561.411 757.005 559.752 Q 756.095 558.093 756.095 555.811 L 756.095 544.373 L 759.049 544.373 L 759.049 555.657 Q 759.049 557.155 759.595 558.233 Q 760.141 559.311 761.1 559.885 Q 762.059 560.459 763.291 560.459 Q 764.523 560.459 765.468 559.885 Q 766.413 559.311 766.959 558.233 Q 767.505 557.155 767.505 555.657 Z M 773.749 544.373 L 780.539 544.373 Q 782.065 544.373 783.304 545.01 Q 784.543 545.647 785.278 546.865 Q 786.013 548.083 786.013 549.819 Q 786.013 551.541 785.348 552.661 Q 784.683 553.781 783.759 554.341 Q 782.835 554.901 782.051 554.971 L 786.601 562.853 L 783.255 562.853 L 779.069 555.195 L 776.703 555.195 L 776.703 562.853 L 773.749 562.853 Z M 776.703 553.067 L 779.489 553.067 Q 780.973 553.067 781.974 552.325 Q 782.975 551.583 782.975 549.903 Q 782.975 548.209 781.981 547.495 Q 780.987 546.781 779.517 546.781 L 776.703 546.781 Z M 798.235 560.263 Q 799.817 560.263 801.014 559.822 Q 802.211 559.381 802.743 558.961 L 804.031 561.481 Q 803.387 562.041 801.819 562.615 Q 800.251 563.189 798.067 563.189 Q 796.023 563.189 794.259 562.461 Q 792.495 561.733 791.165 560.438 Q 789.835 559.143 789.093 557.407 Q 788.351 555.671 788.351 553.641 Q 788.351 551.611 789.093 549.861 Q 789.835 548.111 791.158 546.809 Q 792.481 545.507 794.252 544.772 Q 796.023 544.037 798.067 544.037 Q 800.251 544.037 801.819 544.611 Q 803.387 545.185 804.031 545.745 L 802.743 548.265 Q 802.211 547.845 801.014 547.404 Q 799.817 546.963 798.235 546.963 Q 796.709 546.963 795.484 547.467 Q 794.259 547.971 793.37 548.881 Q 792.481 549.791 792.012 550.995 Q 791.543 552.199 791.543 553.599 Q 791.543 555.013 792.012 556.224 Q 792.481 557.435 793.37 558.345 Q 794.259 559.255 795.484 559.759 Q 796.709 560.263 798.235 560.263 Z M 817.819 554.901 L 809.741 554.901 L 809.741 562.853 L 806.801 562.853 L 806.801 544.373 L 809.741 544.373 L 809.741 552.269 L 817.819 552.269 L 817.819 544.373 L 820.745 544.373 L 820.745 562.853 L 817.819 562.853 Z" transform="matrix(4.30956, 0, 0, 4.431253, -2370.585151, -1785.394856)" style="fill: rgb(255, 255, 255); text-wrap-mode: nowrap;"></path>
  <defs>
    <style bx:fonts="League Spartan">@import url(https://fonts.googleapis.com/css2?family=League+Spartan%3Aital%2Cwght%400%2C100..900&amp;display=swap);</style>
    <style bx:fonts="Alexandria">@import url(https://fonts.googleapis.com/css2?family=Alexandria%3Aital%2Cwght%400%2C100..900&amp;display=swap);</style>
  </defs>
</svg>